<svg width="512" height="512" viewBox="0 0 512 512" fill="none" xmlns="http://www.w3.org/2000/svg">
<g id="wolfLogo4">
<path id="base" d="M14.2939 334.536L106.616 50.3916L405.384 50.3916L497.707 334.536L256 510.146L14.2939 334.536Z" fill="#3DDA4F" stroke="black" stroke-width="3"/>
<path id="Subtract" d="M357.027 120.119L386.211 272.584L387.864 272.266L387.413 272.593L415.113 311.062L352.364 356.652L311.571 324.104L328.983 373.639L261.121 422.944V394.283L288.093 371.366C290.22 369.558 288.942 366.08 286.15 366.08H224.143C221.352 366.08 220.073 369.558 222.2 371.366L249.174 394.285V421.704L182.807 373.487L200.168 324.104L159.499 356.552L98.3963 312.159L126.888 272.593L126.435 272.266L128.09 272.584L157.308 119.926L256 184.32L356.567 118.701L357.027 120.119ZM194.787 300.602L234.221 311.308L222.003 272.315L182.568 261.609L194.787 300.602ZM290.722 272.315L278.504 311.308L317.938 300.602L330.157 261.609L290.722 272.315ZM144.954 242.108L232.448 189.299L164.654 141.829L144.954 242.108ZM279.11 189.299L366.604 242.108L346.904 141.829L279.11 189.299Z" fill="#0F64AA"/>
</g>
</svg>
