<svg width="192" height="192" viewBox="0 0 192 192" fill="none" xmlns="http://www.w3.org/2000/svg">
<g id="wolfLogo4">
<path id="base" d="M6.46191 125.093L40.6621 19.834L151.338 19.834L185.539 125.093L96 190.146L6.46191 125.093Z" fill="#3DDA4F" stroke="black" stroke-width="3"/>
<path id="Subtract" d="M133.886 45.0486L144.829 102.219L145.449 102.099L145.279 102.222L155.666 116.647L132.136 133.744L116.839 121.539L123.368 140.114L97.9201 158.604V147.855L104.146 142.566C106.273 140.759 104.995 137.28 102.203 137.28H89.1555C86.3643 137.28 85.0862 140.759 87.2131 142.566L93.4396 147.855V158.138L68.5529 140.057L75.0627 121.539L59.8107 133.707L36.8986 117.059L47.5832 102.222L47.4123 102.099L48.0334 102.219L58.9904 44.9714L95.9992 69.1199L133.712 44.5125L133.886 45.0486ZM73.0451 112.725L87.8322 116.741L83.2502 102.118L68.4631 98.1033L73.0451 112.725ZM109.021 102.118L104.439 116.741L119.227 112.725L123.809 98.1033L109.021 102.118ZM54.3576 90.7908L87.1682 70.9871L61.7453 53.1853L54.3576 90.7908ZM104.666 70.9871L137.476 90.7908L130.089 53.1853L104.666 70.9871Z" fill="#0F64AA"/>
</g>
</svg>
