<svg width="50" height="50" viewBox="0 0 50 50" fill="none" xmlns="http://www.w3.org/2000/svg">
<g id="wolfLogo4">
<path id="base" d="M2.9873 32.1523L11.3955 6.27441L38.6045 6.27441L47.0137 32.1523L25 48.1455L2.9873 32.1523Z" fill="#3DDA4F" stroke="black" stroke-width="3"/>
<path id="Subtract" d="M34.8659 11.7324L37.7155 26.6191L37.8776 26.5879L37.8336 26.6201L40.5387 30.377L34.4098 34.8291L30.4264 31.6504L32.1266 36.4883L25.4997 41.3027V38.4336C25.6153 38.3808 25.7259 38.3123 25.8268 38.2266C26.8233 37.3796 26.2245 35.75 24.9167 35.75C23.6088 35.75 23.01 37.3796 24.0065 38.2266C24.1074 38.3123 24.218 38.3808 24.3336 38.4336V41.1826L17.8512 36.4736L19.5475 31.6504L15.5749 34.8193L9.60904 30.4844L12.3913 26.6201L12.3463 26.5879L12.5085 26.6191L15.362 11.7109L24.9997 18L34.821 11.5918L34.8659 11.7324ZM19.0221 29.3555L22.8727 30.4014L21.6803 26.5938L17.8288 25.5479L19.0221 29.3555ZM28.3913 26.5938L27.1979 30.4014L31.0485 29.3555L32.2419 25.5479L28.3913 26.5938ZM14.1559 23.6436L22.6999 18.4863L16.0797 13.8506L14.1559 23.6436ZM27.2565 18.4863L35.8014 23.6436L33.8776 13.8506L27.2565 18.4863Z" fill="#0F64AA"/>
</g>
</svg>
